#!OML:ASF F:\VICON\USERDATA\INSTALL\Justin_Nancy\Justin_Nancy.ASF
:FULLY-SPECIFIED
:DEGREES
32
root 8.98702 17.714 -24.3996 -2.68124 2.43553 -2.51662
lowerback 6.95015 -0.958118 0.770523
upperback 0.0870032 -1.06666 3.78345
thorax -3.75285 -0.510727 3.59955
lowerneck -14.5648 -4.06419 -9.69548
upperneck 20.6976 -4.47594 5.1085
head 9.25931 -2.31219 2.81583
rclavicle -1.94685e-014 6.20208e-014
rhumerus -36.8907 -21.5239 -70.5249
rradius 25.2941
rwrist 10.8515
rhand -12.124 12.1605
rfingers 7.12502
rthumb 13.9375 -17.3523
lclavicle -1.94685e-014 6.20208e-014
lhumerus -34.6932 12.6267 82.5767
lradius 26.2121
lwrist -10.0712
lhand -14.5413 28.4743
lfingers 7.12502
lthumb 11.6071 58.1328
rfemur -5.04799 5.42467 29.0648
rtibia 19.5901
rfoot -6.67987 -2.11525
rtoes 8.84453
lfemur -18.3137 4.26313 -16.5687
ltibia 64.424
lfoot 0.365703 -1.12867
ltoes -6.3105
33
root 8.98865 17.7062 -24.2435 -2.75361 2.23017 -2.37731
lowerback 6.84732 -0.83842 0.710081
upperback 0.213736 -0.92266 3.70151
thorax -3.57186 -0.440892 3.52861
lowerneck -14.883 -4.09891 -9.72137
upperneck 20.8363 -4.51212 5.20674
head 9.37229 -2.31743 2.84745
rclavicle -1.42628e-014 5.24792e-014
rhumerus -36.3295 -21.3122 -70.8527
rradius 25.4686
rwrist 10.7861
rhand -11.8278 13.2117
rfingers 7.12502
rthumb 14.223 -16.2813
lclavicle -1.42628e-014 5.24792e-014
lhumerus -34.7212 12.8334 82.5519
lradius 25.5626
lwrist -10.1868
lhand -14.7446 27.2603
lfingers 7.12502
lthumb 11.411 56.9298
rfemur -4.50439 5.19934 28.9949
rtibia 19.7679
rfoot -7.58533 -2.20892
rtoes 7.38816
lfemur -19.0409 4.51056 -16.7922
ltibia 64.0694
lfoot -0.537213 -0.578562
ltoes -5.64004
34
root 8.99109 17.6926 -24.1063 -2.61306 1.89201 -2.88495
lowerback 6.76825 -0.703423 1.29722
upperback 0.339247 -0.6998 3.82202
thorax -3.41552 -0.34001 3.29718
lowerneck -15.5562 -4.27792 -9.77198
upperneck 21.0968 -4.69116 5.22192
head 9.60591 -2.3959 2.83178
rclavicle -3.13086e-015 -5.64548e-014
rhumerus -35.6131 -20.9592 -71.3346
rradius 25.8096
rwrist 10.3313
rhand -11.9636 13.4079
rfingers 7.12502
rthumb 14.0921 -16.0943
lclavicle -3.13086e-015 -5.64548e-014
lhumerus -34.693 12.9766 82.6885
lradius 25.1415
lwrist -9.68517
lhand -14.9797 27.2079
lfingers 7.12502
lthumb 11.1844 56.8898
rfemur -4.2334 5.37882 29.657
rtibia 19.9292
rfoot -8.47734 -2.84518
rtoes 4.92363
lfemur -20.2124 4.79504 -16.2984
ltibia 63.6519
lfoot -1.28521 -0.1591
ltoes -6.51709
35
root 8.99507 17.6877 -23.9607 -2.52898 1.71879 -3.01795
lowerback 6.65941 -0.74364 1.47769
upperback 0.748987 -0.756092 3.97023
thorax -2.92798 -0.373297 3.34609
lowerneck -17.1309 -4.39096 -10.1696
upperneck 21.3491 -4.5853 5.24742
head 9.99337 -2.35558 2.9057
rclavicle -1.23246e-014 3.4191e-014
rhumerus -34.1078 -19.8346 -72.2463
rradius 26.2175
rwrist 9.36912
rhand -11.7564 12.967
rfingers 7.12502
rthumb 14.2917 -16.5212
lclavicle -1.23246e-014 3.4191e-014
lhumerus -34.2642 13.5394 83.0944
lradius 24.6012
lwrist -7.68183
lhand -17.5389 24.4497
lfingers 7.12502
lthumb 8.71534 54.2498
rfemur -3.85209 5.36846 29.8779
rtibia 20.09
rfoot -9.2702 -2.91163
rtoes 3.64694
lfemur -21.2139 4.92328 -16.275
ltibia 62.9531
lfoot -2.30627 0.482367
ltoes -7.20676
36
root 9.00141 17.6836 -23.8102 -2.43903 1.53539 -3.05512
lowerback 6.55799 -0.553523 1.6811
upperback 0.484108 -0.486679 3.78191
thorax -3.16119 -0.241103 3.01252
lowerneck -15.9273 -4.35679 -9.74451
upperneck 20.8074 -4.74541 5.16243
head 9.57577 -2.41623 2.79143
rclavicle 4.87022e-015 -2.70347e-014
rhumerus -34.4302 -19.3551 -72.6386
rradius 26.8757
rwrist 8.6568
rhand -11.062 11.7332
rfingers 7.12502
rthumb 14.9608 -17.7065
lclavicle 4.87022e-015 -2.70347e-014
lhumerus -35.0816 13.2266 82.7143
lradius 25.3324
lwrist -10.372
lhand -13.0672 29.771
lfingers 7.12502
lthumb 13.0284 59.3442
rfemur -3.41477 5.22348 29.9463
rtibia 20.2083
rfoot -9.85231 -2.31143
rtoes 4.49286
lfemur -22.2336 5.01976 -16.4036
ltibia 62.13
lfoot -4.32622 0.908722
ltoes -10.7328
